<svg width="500" height="156" viewBox="0 0 500 156" fill="none" xmlns="http://www.w3.org/2000/svg">
<mask id="mask0_36_139" style="mask-type:luminance" maskUnits="userSpaceOnUse" x="0" y="99" width="58" height="57">
<path d="M0.387688 99.8958H57.8284V155.221H0.387688V99.8958Z" fill="white"/>
</mask>
<g mask="url(#mask0_36_139)">
<path d="M55.241 126.732C57.4471 123.636 57.0204 119.278 53.9609 116.519C52.2541 114.984 49.8483 113.84 47.5241 114.267C45.1183 114.703 42.8032 116.264 40.9421 117.808C38.0551 120.177 35.4404 122.928 32.7713 125.579C32.1267 125.025 31.4821 124.462 30.8375 123.909C33.2162 121.503 35.5131 119.024 37.6012 116.364C39.0901 114.476 40.5971 112.143 40.9875 109.728C41.3688 107.404 40.2067 105.016 38.6634 103.327C35.6402 100.014 30.7649 99.8955 27.7508 102.901C24.4462 100.104 19.5346 100.694 16.8292 104.335C15.4674 106.169 14.5504 108.666 15.1587 110.935C15.7942 113.305 17.5282 115.465 19.1987 117.199C21.541 119.623 24.1647 121.793 26.7521 123.999C26.1257 124.644 25.4993 125.289 24.8819 125.924C22.3308 123.373 19.7071 120.894 16.8836 118.652C15.0043 117.163 12.6802 115.638 10.2562 115.238C7.93206 114.848 5.54437 116.001 3.85574 117.535C0.57834 120.504 0.387687 125.27 3.24747 128.303C0.505712 131.453 0.877936 136.21 4.26428 139.052C6.01646 140.513 8.44954 141.576 10.7646 141.094C13.1614 140.595 15.422 138.988 17.2468 137.427C19.9341 135.112 22.3671 132.47 24.8365 129.9C25.3994 130.445 25.9623 130.999 26.5252 131.544C24.2374 133.786 22.0222 136.101 19.9795 138.58C18.4452 140.45 16.8745 142.774 16.4025 145.216C15.9576 147.568 17.0561 150.019 18.545 151.771C21.2595 154.967 25.6355 155.421 28.7404 153.106C31.8725 155.811 36.5934 155.439 39.426 152.08C40.9058 150.337 41.968 147.903 41.505 145.597C41.0147 143.201 39.4169 140.931 37.8554 139.097C35.6129 136.464 33.0527 134.077 30.547 131.653C31.3006 130.899 32.0632 130.146 32.8167 129.401C35.5675 131.843 38.391 134.195 41.4051 136.301C43.3752 137.672 45.7901 139.043 48.2323 139.297C50.5746 139.542 52.8896 138.244 54.4784 136.61C57.2565 133.759 57.4471 129.619 55.241 126.732ZM28.5588 110.4C28.7041 111.534 28.5316 112.66 28.232 113.768C27.8507 112.733 27.5783 111.652 27.6055 110.545C27.6237 109.819 27.7599 109.074 27.9959 108.357C28.2774 109.02 28.4771 109.71 28.5588 110.4ZM24.083 117.917C23.1025 116.982 22.1493 116.028 21.2232 115.039C19.7343 113.459 18.2454 111.634 18.1365 109.464C18.0457 107.776 18.8809 106.069 20.27 105.116C21.659 104.153 23.5474 103.972 25.0907 104.644C25.4176 104.789 25.7535 104.998 25.8352 105.343C25.9078 105.642 25.7626 105.942 25.6264 106.223C24.0739 109.555 24.5188 113.722 26.7249 116.655C27.2152 117.308 27.9868 117.962 28.7585 117.708C29.158 117.572 29.4485 117.227 29.6936 116.882C31.927 113.722 32.0904 109.228 30.084 105.915C29.9569 105.688 29.8026 105.443 29.857 105.188C29.8934 104.989 30.0477 104.834 30.2111 104.707C33.3614 102.102 38.3728 105.642 37.9734 109.41C37.8281 110.717 37.1018 111.888 36.3574 112.978C34.124 116.228 31.5457 119.197 28.6314 121.875C27.0608 120.622 25.5447 119.297 24.083 117.917ZM22.6123 128.248C21.1778 129.719 19.6799 131.117 18.2 132.542C16.8292 133.868 15.5037 135.257 13.9149 136.319C12.3988 137.336 10.4922 138.552 8.61296 138.026C5.19938 137.073 2.8934 132.86 5.68055 130.118C9.62069 132.279 14.3507 132.107 17.8006 128.902C17.9095 128.82 18.0094 128.72 18.0911 128.602L18.1002 128.593C18.1274 128.548 18.1456 128.511 18.1728 128.466C18.191 128.43 18.2 128.403 18.2182 128.366C18.2182 128.357 18.2273 128.348 18.2273 128.339C18.2908 128.166 18.2999 127.985 18.2545 127.812C18.2545 127.803 18.2545 127.803 18.2545 127.803C18.1819 127.522 17.9821 127.268 17.7189 127.104C14.1509 124.072 9.4482 124.099 5.60792 126.396C2.7209 123.763 4.85439 119.469 8.23166 118.38C10.0928 117.78 12.0447 118.933 13.5972 119.887C15.2313 120.885 16.6022 122.22 18.0275 123.491C19.6708 124.962 21.2777 126.469 22.8665 127.994L22.6123 128.248ZM8.74914 128.194C9.48452 127.912 10.2471 127.731 11.0007 127.685C12.0265 127.622 13.0252 127.803 13.9966 128.094C13.0343 128.43 12.0447 128.648 11.0279 128.629C10.2653 128.602 9.49359 128.448 8.74914 128.194ZM28.0867 145.298C28.0141 144 28.3409 142.738 28.7858 141.521C29.3577 142.529 29.8752 143.509 29.8117 144.762C29.7572 145.915 29.394 147.095 28.8493 148.158C28.4226 147.241 28.1503 146.269 28.0867 145.298ZM36.7387 142.42C37.7464 143.945 38.9539 145.852 38.4182 147.731C37.4831 151.036 33.4976 153.287 30.7649 150.881C30.8739 150.981 32.163 147.831 32.2357 147.513C32.5534 146.188 32.5806 144.862 32.3174 143.518C32.0359 142.102 30.2656 137.018 28.1139 138.126C23.9014 140.296 24.9001 147.558 26.8248 150.754C24.1375 152.724 20.4334 150.536 19.5074 147.35C18.9536 145.443 20.1429 143.5 21.1324 141.948C22.1765 140.305 23.5383 138.943 24.8456 137.536C26.0803 136.201 27.3423 134.894 28.6133 133.596L28.7041 133.686C30.1657 135.13 31.5638 136.637 32.9801 138.117C34.3056 139.497 35.6856 140.822 36.7387 142.42ZM30.3836 127.876C29.7572 128.466 29.1308 129.047 28.5134 129.637C28.232 129.356 27.9505 129.074 27.6782 128.793C27.3876 128.493 27.0971 128.194 26.8066 127.894C27.0427 127.667 27.2696 127.431 27.5057 127.204C27.9687 126.75 28.4317 126.305 28.8856 125.851C29.2579 126.178 29.6301 126.514 30.0023 126.85C30.2474 127.077 30.5016 127.304 30.7468 127.531C30.6287 127.649 30.5107 127.767 30.3836 127.876ZM50.0571 136.029C48.2323 136.746 46.2259 135.72 44.6099 134.867C42.9213 133.968 41.4596 132.724 39.9616 131.544C38.2457 130.182 36.5571 128.793 34.8776 127.377L35.3042 126.95C36.7841 125.506 38.3274 124.126 39.8436 122.719C41.2508 121.421 42.6126 120.05 44.2377 119.015C45.781 118.035 47.7239 116.845 49.585 117.436C52.6536 118.407 54.7326 122.057 52.9713 124.744C48.6136 122.156 43.2662 122.411 39.7256 126.26C39.2898 126.741 39.3715 127.259 39.6892 127.622C39.7528 127.803 39.8527 127.958 39.9888 128.085C43.7202 131.653 48.9404 131.58 53.0621 128.811C54.7598 131.317 52.9623 134.885 50.0571 136.029ZM50.4475 126.823C49.3399 127.422 48.1052 127.812 46.8977 127.858C45.545 127.903 44.2467 127.513 43.003 127.004C44.1469 126.46 45.3543 126.024 46.6344 125.979C47.9145 125.933 49.2491 126.269 50.4475 126.823Z" fill="#48CFAE"/>
</g>
<mask id="mask1_36_139" style="mask-type:luminance" maskUnits="userSpaceOnUse" x="441" y="99" width="59" height="57">
<path d="M441.675 99.8958H499.197V155.221H441.675V99.8958Z" fill="white"/>
</mask>
<g mask="url(#mask1_36_139)">
<path d="M496.528 126.741C498.725 123.636 498.298 119.288 495.239 116.528C493.532 114.993 491.126 113.85 488.811 114.267C486.396 114.712 484.09 116.274 482.22 117.808C479.342 120.177 476.727 122.928 474.049 125.579C473.404 125.025 472.76 124.472 472.115 123.909C474.494 121.503 476.791 119.024 478.888 116.364C480.368 114.476 481.875 112.152 482.274 109.728C482.656 107.404 481.484 105.016 479.95 103.336C476.918 100.023 472.052 99.8956 469.038 102.91C465.724 100.114 460.821 100.704 458.107 104.344C456.745 106.178 455.828 108.666 456.446 110.944C457.081 113.305 458.815 115.475 460.486 117.209C462.819 119.624 465.452 121.802 468.03 123.999C467.413 124.644 466.786 125.289 466.16 125.933C463.618 123.373 460.994 120.904 458.161 118.661C456.282 117.163 453.958 115.647 451.543 115.239C449.219 114.848 446.822 116.001 445.133 117.535C441.865 120.504 441.675 125.27 444.525 128.312C441.793 131.462 442.165 136.21 445.551 139.052C447.294 140.523 449.736 141.576 452.042 141.104C454.439 140.604 456.709 138.997 458.525 137.427C461.212 135.121 463.645 132.479 466.123 129.901C466.686 130.454 467.249 130.999 467.812 131.553C465.515 133.795 463.3 136.11 461.266 138.589C459.732 140.459 458.152 142.783 457.689 145.225C457.244 147.568 458.334 150.028 459.823 151.771C462.546 154.967 466.922 155.43 470.018 153.115C473.15 155.811 477.871 155.439 480.713 152.089C482.184 150.346 483.255 147.913 482.783 145.607C482.292 143.201 480.695 140.931 479.142 139.106C476.9 136.474 474.34 134.077 471.834 131.653C472.587 130.899 473.341 130.155 474.104 129.401C476.845 131.843 479.669 134.204 482.692 136.31C484.662 137.681 487.077 139.052 489.51 139.306C491.852 139.551 494.167 138.244 495.765 136.61C498.534 133.768 498.725 129.619 496.528 126.741ZM469.846 110.409C469.982 111.544 469.809 112.669 469.519 113.768C469.128 112.733 468.865 111.662 468.883 110.554C468.901 109.819 469.047 109.074 469.274 108.357C469.564 109.02 469.764 109.719 469.846 110.409ZM465.37 117.926C464.38 116.991 463.427 116.028 462.501 115.048C461.012 113.468 459.532 111.634 459.414 109.474C459.323 107.785 460.159 106.078 461.548 105.116C462.937 104.154 464.834 103.972 466.378 104.653C466.695 104.798 467.031 105.007 467.113 105.352C467.186 105.651 467.04 105.951 466.913 106.233C465.361 109.555 465.797 113.731 468.003 116.664C468.502 117.318 469.265 117.962 470.045 117.708C470.445 117.581 470.726 117.236 470.971 116.891C473.214 113.731 473.368 109.238 471.371 105.915C471.235 105.697 471.089 105.443 471.135 105.188C471.18 104.989 471.335 104.834 471.489 104.707C474.639 102.111 479.66 105.642 479.251 109.419C479.115 110.726 478.389 111.898 477.644 112.978C475.402 116.237 472.823 119.206 469.918 121.875C468.339 120.622 466.822 119.306 465.37 117.926ZM463.899 128.257C462.465 129.719 460.958 131.126 459.487 132.552C458.107 133.877 456.79 135.266 455.193 136.328C453.677 137.336 451.779 138.562 449.891 138.035C446.477 137.073 444.171 132.869 446.958 130.118C450.908 132.288 455.628 132.116 459.078 128.911C459.196 128.82 459.296 128.72 459.378 128.602C459.405 128.557 459.432 128.512 459.451 128.466C459.469 128.439 459.487 128.403 459.496 128.375C459.505 128.366 459.505 128.348 459.514 128.339C459.569 128.167 459.578 127.994 459.532 127.812C459.532 127.812 459.532 127.812 459.532 127.803C459.46 127.522 459.26 127.277 458.997 127.113C455.429 124.081 450.735 124.099 446.886 126.405C443.999 123.772 446.141 119.478 449.509 118.389C451.38 117.79 453.322 118.934 454.875 119.887C456.509 120.885 457.889 122.22 459.305 123.491C460.949 124.962 462.555 126.469 464.144 127.994L463.899 128.257ZM450.027 128.203C450.762 127.921 451.525 127.74 452.287 127.685C453.304 127.622 454.303 127.812 455.274 128.103C454.312 128.439 453.322 128.657 452.306 128.63C451.543 128.611 450.771 128.457 450.027 128.203ZM469.374 145.307C469.301 144.009 469.619 142.747 470.064 141.53C470.645 142.529 471.153 143.519 471.098 144.771C471.035 145.924 470.681 147.096 470.136 148.167C469.709 147.25 469.428 146.269 469.374 145.307ZM478.016 142.429C479.024 143.954 480.241 145.861 479.705 147.74C478.77 151.045 474.775 153.296 472.043 150.89C472.152 150.981 473.441 147.831 473.513 147.522C473.831 146.197 473.858 144.862 473.604 143.528C473.323 142.102 471.543 137.027 469.392 138.135C465.188 140.296 466.178 147.568 468.112 150.763C465.415 152.724 461.72 150.545 460.785 147.35C460.231 145.452 461.43 143.5 462.419 141.948C463.454 140.314 464.825 138.952 466.132 137.545C467.367 136.21 468.62 134.894 469.9 133.605L469.991 133.695C471.453 135.139 472.842 136.646 474.267 138.126C475.583 139.506 476.963 140.831 478.016 142.429ZM471.67 127.885C471.044 128.466 470.418 129.056 469.791 129.646C469.519 129.365 469.237 129.084 468.956 128.802C468.674 128.502 468.384 128.203 468.093 127.903C468.32 127.667 468.556 127.44 468.792 127.204C469.246 126.759 469.709 126.305 470.172 125.861C470.545 126.187 470.917 126.523 471.28 126.859C471.534 127.086 471.779 127.313 472.034 127.54C471.906 127.649 471.788 127.767 471.67 127.885ZM491.344 136.038C489.519 136.746 487.504 135.729 485.897 134.876C484.199 133.977 482.746 132.733 481.248 131.553C479.523 130.191 477.835 128.793 476.164 127.377L476.591 126.959C478.071 125.507 479.614 124.136 481.121 122.728C482.538 121.421 483.89 120.05 485.515 119.024C487.068 118.035 489.002 116.855 490.872 117.445C493.94 118.407 496.019 122.057 494.249 124.744C489.9 122.166 484.544 122.411 481.003 126.269C480.568 126.741 480.649 127.268 480.967 127.631C481.031 127.812 481.13 127.967 481.276 128.094C484.998 131.662 490.227 131.589 494.34 128.82C496.038 131.326 494.249 134.894 491.344 136.038ZM491.734 126.832C490.627 127.431 489.392 127.822 488.175 127.858C486.832 127.912 485.534 127.522 484.281 127.014C485.434 126.469 486.641 126.033 487.912 125.988C489.201 125.942 490.536 126.269 491.734 126.832Z" fill="#48CFAE"/>
</g>
<path d="M9.20702 47.3501C20.0197 56.7647 31.5224 55.8296 31.9854 61.295C32.6845 67.1053 16.9965 65.9432 8.04495 59.4338C3.97771 56.5287 -0.552546 62.802 3.5147 65.7072C11.1862 71.2906 20.6008 73.1426 28.1542 72.6796C34.4276 72.2166 40.1199 67.4503 39.7749 60.9409C38.9578 48.6302 24.55 50.6003 14.4363 41.5398C6.07488 34.3404 7.69996 22.1387 13.9733 15.5113C21.6448 7.03184 34.1915 9.00191 44.6501 12.7242C49.5345 14.4673 52.0856 7.03184 47.3193 5.40676C39.1939 2.61961 33.4925 1.68451 26.52 2.03858C2.58867 3.20065 -7.63391 32.5973 9.20702 47.3501ZM25.8301 31.4353C21.9898 28.4121 25.013 21.2036 42.562 28.294C47.3193 30.2732 50.1155 23.0647 45.5762 21.2036C16.6515 9.474 11.7672 30.0371 21.0638 37.3545C26.9921 42.1208 47.9003 45.026 47.9003 60.9409C47.9003 82.4391 23.6149 84.8813 5.72081 75.3578C1.19056 73.0337 -2.4046 79.888 2.00764 82.2122C6.53789 84.6453 11.0682 86.1614 15.0174 86.9694C36.7517 92.1987 55.5718 82.2122 55.5718 60.9409C55.5718 39.3337 30.1243 34.6854 25.8301 31.4353Z" fill="#48CFAE"/>
<path d="M84.2665 83.9548V6.21425C84.2665 4.12616 82.5234 2.38306 80.4353 2.38306C78.2292 2.38306 76.4861 4.12616 76.4861 6.21425V83.9548C76.4861 86.0429 78.2292 87.786 80.4353 87.786C82.5234 87.786 84.2665 86.0429 84.2665 83.9548ZM92.056 6.21425V37.354C92.056 39.4512 93.7991 41.1943 95.8872 41.1943H119.247C121.335 41.1943 123.078 39.4512 123.078 37.354V6.21425C123.078 4.12616 121.335 2.38306 119.247 2.38306C117.041 2.38306 115.297 4.12616 115.297 6.21425V33.4048H99.8365V6.21425C99.8365 4.12616 98.0933 2.38306 95.8872 2.38306C93.7991 2.38306 92.056 4.12616 92.056 6.21425ZM130.867 6.21425V83.9548C130.867 86.0429 132.61 87.786 134.699 87.786C136.905 87.786 138.648 86.0429 138.648 83.9548V6.21425C138.648 4.12616 136.905 2.38306 134.699 2.38306C132.61 2.38306 130.867 4.12616 130.867 6.21425ZM123.078 83.9548V52.815C123.078 50.7178 121.335 48.9747 119.247 48.9747H95.8872C93.7991 48.9747 92.056 50.7178 92.056 52.815V83.9548C92.056 86.0429 93.7991 87.786 95.8872 87.786C98.0933 87.786 99.8365 86.0429 99.8365 83.9548V56.7642H115.297V83.9548C115.297 86.0429 117.041 87.786 119.247 87.786C121.335 87.786 123.078 86.0429 123.078 83.9548Z" fill="#48CFAE"/>
<path d="M164.444 84.6449L192.443 14.1219L220.45 84.6449C221.258 86.624 223.583 87.55 225.562 86.8601C227.532 85.925 228.467 83.7188 227.65 81.7397L196.047 2.50119C195.702 1.56609 195.003 0.640067 193.841 0.295079C191.98 -0.522001 189.656 0.404023 188.838 2.50119L157.118 81.7397C156.428 83.7188 157.472 85.925 159.333 86.8601C161.303 87.55 163.509 86.624 164.444 84.6449ZM186.75 64.5447H198.026C200.232 64.5447 202.084 62.8016 202.084 60.5955C202.084 60.0145 201.975 59.5515 201.739 59.0885L196.047 45.1436C195.23 43.2825 193.024 42.3565 190.936 43.1645C189.075 43.8635 188.149 46.1877 188.838 48.1668L192.325 56.7643H186.75C184.662 56.7643 182.919 58.3894 182.919 60.5955C182.919 62.8016 184.662 64.5447 186.75 64.5447ZM181.058 84.6449L183.028 80.1146H201.857L203.718 84.6449C204.526 86.742 206.851 87.55 208.83 86.8601C210.8 85.925 211.617 83.7188 210.918 81.7397L208.131 75.0033C207.668 73.4963 206.152 72.2162 204.408 72.2162H180.359C178.97 72.2162 177.454 73.2602 176.755 74.6583L173.968 81.7397C173.16 83.7188 174.086 85.925 176.065 86.8601C178.153 87.55 180.359 86.624 181.058 84.6449Z" fill="#48CFAE"/>
<path d="M310.848 2.72837L289.349 33.5232L268.087 2.72837C266.807 0.985264 264.247 0.522253 262.504 1.80234C260.761 3.08244 260.416 5.51551 261.578 7.25861L286.208 42.4656C286.444 42.9377 286.789 43.2827 287.143 43.5188C288.886 44.9078 291.438 44.4448 292.718 42.5837L317.348 7.25861C318.51 5.51551 318.165 3.08244 316.422 1.80234C314.561 0.522253 312.119 0.985264 310.848 2.72837ZM254.487 83.8371V5.0525C254.487 2.84639 252.744 1.10329 250.538 1.10329C248.332 1.10329 246.589 2.84639 246.589 5.0525V83.8371C246.589 86.0432 248.332 87.7863 250.538 87.7863C252.744 87.7863 254.487 86.0432 254.487 83.8371ZM332.337 83.8371V5.0525C332.337 2.84639 330.594 1.10329 328.27 1.10329C326.182 1.10329 324.439 2.84639 324.439 5.0525V83.8371C324.439 86.0432 326.182 87.7863 328.27 87.7863C330.594 87.7863 332.337 86.0432 332.337 83.8371ZM316.54 83.8371V34.6852C316.54 32.5971 314.797 30.854 312.591 30.854C311.193 30.854 310.031 31.544 309.332 32.5971L289.349 61.0587L269.594 32.4791C268.314 30.736 265.763 30.273 264.02 31.544C262.976 32.2431 262.395 33.5232 262.395 34.6852V83.8371C262.395 86.0432 264.138 87.7863 266.226 87.7863C268.55 87.7863 270.293 86.0432 270.293 83.8371V47.2319L286.208 70.1283C286.444 70.4733 286.789 70.8183 287.143 71.1723C288.886 72.3344 291.438 71.8714 292.718 70.1283L308.633 47.2319V83.8371C308.633 86.0432 310.376 87.7863 312.591 87.7863C314.797 87.7863 316.54 86.0432 316.54 83.8371Z" fill="#48CFAE"/>
<path d="M422.855 56.7647V6.09668C422.855 3.89056 421.112 2.14746 419.015 2.14746C416.809 2.14746 415.184 3.89056 415.184 6.09668V56.7647C415.184 89.2935 365.333 89.2935 365.333 56.7647V6.09668C365.333 3.89056 363.59 2.14746 361.383 2.14746C359.295 2.14746 357.552 3.89056 357.552 6.09668V56.7647C357.552 99.2891 422.855 99.4071 422.855 56.7647ZM373.467 6.09668V55.8296C373.467 78.4899 407.049 78.4899 407.049 55.8296V6.09668C407.049 3.89056 405.306 2.14746 403.218 2.14746C400.894 2.14746 399.26 3.89056 399.26 6.09668V55.8296C399.26 68.1493 381.257 68.1493 381.257 55.8296V6.09668C381.257 3.89056 379.514 2.14746 377.298 2.14746C375.21 2.14746 373.467 3.89056 373.467 6.09668Z" fill="#48CFAE"/>
<path d="M453.635 47.3501C464.448 56.7647 475.951 55.8296 476.414 61.295C477.113 67.1053 461.425 65.9432 452.473 59.4338C448.406 56.5287 443.876 62.802 447.943 65.7072C455.614 71.2906 465.029 73.1426 472.582 72.6796C478.856 72.2166 484.548 67.4503 484.203 60.9409C483.386 48.6302 468.978 50.6003 458.865 41.5398C450.503 34.3404 452.128 22.1387 458.402 15.5113C466.073 7.03184 478.62 9.00191 489.078 12.7242C493.963 14.4673 496.514 7.03184 491.747 5.40676C483.622 2.61961 477.921 1.68451 470.948 2.03858C447.017 3.20065 436.794 32.5973 453.635 47.3501ZM470.258 31.4353C466.418 28.4121 469.441 21.2036 486.99 28.294C491.747 30.2732 494.544 23.0647 490.004 21.2036C461.08 9.474 456.195 30.0371 465.492 37.3545C471.42 42.1208 492.329 45.026 492.329 60.9409C492.329 82.4391 468.043 84.8813 450.149 75.3578C445.619 73.0337 442.024 79.888 446.436 82.2122C450.966 84.6453 455.496 86.1614 459.446 86.9694C481.18 92.1987 500 82.2122 500 60.9409C500 39.3337 474.552 34.6854 470.258 31.4353Z" fill="#48CFAE"/>
<path d="M97.7969 144.627C94.5013 144.627 91.6779 143.928 89.3356 142.521C86.9842 141.123 85.1685 139.162 83.8884 136.638C82.6264 134.096 82 131.173 82 127.85C82 124.536 82.6264 121.604 83.8884 119.062C85.1685 116.52 86.9842 114.55 89.3356 113.143C91.6779 111.717 94.5013 111 97.7969 111C101.692 111 104.887 111.971 107.384 113.905C109.872 115.848 111.433 118.553 112.069 122.04H105.496C105.105 120.278 104.243 118.898 102.917 117.9C101.61 116.883 99.8668 116.375 97.6879 116.375C94.6829 116.375 92.3224 117.41 90.6066 119.461C88.9089 121.495 88.0646 124.291 88.0646 127.85C88.0646 131.409 88.9089 134.205 90.6066 136.239C92.3224 138.272 94.6829 139.289 97.6879 139.289C99.8668 139.289 101.61 138.817 102.917 137.873C104.243 136.929 105.105 135.621 105.496 133.951H112.069C111.433 137.292 109.872 139.906 107.384 141.795C104.887 143.683 101.692 144.627 97.7969 144.627Z" fill="#434A54"/>
<path d="M141.195 144.627C137.927 144.627 135.076 143.928 132.661 142.521C130.237 141.096 128.34 139.126 126.96 136.602C125.58 134.06 124.89 131.136 124.89 127.814C124.89 124.5 125.58 121.586 126.96 119.062C128.34 116.52 130.237 114.55 132.661 113.143C135.076 111.717 137.927 111 141.195 111C144.409 111 147.242 111.717 149.693 113.143C152.135 114.55 154.033 116.52 155.394 119.062C156.774 121.586 157.464 124.5 157.464 127.814C157.464 131.136 156.774 134.06 155.394 136.602C154.033 139.126 152.135 141.096 149.693 142.521C147.242 143.928 144.409 144.627 141.195 144.627ZM141.195 139.289C144.291 139.289 146.761 138.272 148.604 136.239C150.437 134.187 151.364 131.373 151.364 127.814C151.364 124.255 150.437 121.459 148.604 119.425C146.761 117.373 144.291 116.338 141.195 116.338C138.09 116.338 135.612 117.373 133.751 119.425C131.881 121.459 130.955 124.255 130.955 127.814C130.955 131.373 131.881 134.187 133.751 136.239C135.612 138.272 138.09 139.289 141.195 139.289Z" fill="#434A54"/>
<path d="M169.236 144.083L181.147 111.545H187.829L199.741 144.083H193.422L190.807 136.565H178.133L175.482 144.083H169.236ZM179.767 131.917H189.209L184.452 118.372L179.767 131.917Z" fill="#434A54"/>
<path d="M227.304 144.627C224.008 144.627 221.185 143.928 218.842 142.521C216.491 141.123 214.675 139.162 213.395 136.638C212.133 134.096 211.507 131.173 211.507 127.85C211.507 124.536 212.133 121.604 213.395 119.062C214.675 116.52 216.491 114.55 218.842 113.143C221.185 111.717 224.008 111 227.304 111C231.198 111 234.394 111.971 236.891 113.905C239.378 115.848 240.94 118.553 241.575 122.04H235.002C234.612 120.278 233.749 118.898 232.424 117.9C231.117 116.883 229.374 116.375 227.195 116.375C224.19 116.375 221.829 117.41 220.113 119.461C218.416 121.495 217.571 124.291 217.571 127.85C217.571 131.409 218.416 134.205 220.113 136.239C221.829 138.272 224.19 139.289 227.195 139.289C229.374 139.289 231.117 138.817 232.424 137.873C233.749 136.929 234.612 135.621 235.002 133.951H241.575C240.94 137.292 239.378 139.906 236.891 141.795C234.394 143.683 231.198 144.627 227.304 144.627Z" fill="#434A54"/>
<path d="M255.45 144.083V111.545H261.406V125.054H276.004V111.545H281.96V144.083H276.004V129.92H261.406V144.083H255.45Z" fill="#434A54"/>
<path d="M316.604 144.083V111.545H329.677C333.036 111.545 335.606 112.335 337.376 113.905C339.164 115.458 340.063 117.455 340.063 119.897C340.063 121.958 339.519 123.601 338.429 124.836C337.34 126.052 335.996 126.869 334.398 127.305C336.259 127.668 337.794 128.594 339.01 130.065C340.218 131.545 340.826 133.261 340.826 135.222C340.826 137.791 339.891 139.906 338.03 141.577C336.159 143.247 333.536 144.083 330.149 144.083H316.604ZM322.56 125.199H328.769C330.458 125.199 331.756 124.818 332.655 124.037C333.545 123.265 333.999 122.167 333.999 120.732C333.999 119.38 333.545 118.317 332.655 117.537C331.784 116.738 330.458 116.338 328.697 116.338H322.56V125.199ZM322.56 139.253H329.205C330.966 139.253 332.337 138.844 333.309 138.018C334.298 137.201 334.798 136.048 334.798 134.568C334.798 133.043 334.271 131.845 333.236 130.973C332.219 130.101 330.839 129.666 329.096 129.666H322.56V139.253Z" fill="#434A54"/>
<path d="M367.134 144.627C364.737 144.627 362.567 144.155 360.633 143.211C358.718 142.267 357.193 140.841 356.058 138.926C354.941 137.019 354.387 134.586 354.387 131.627V111.545H360.343V131.663C360.343 134.205 360.942 136.112 362.159 137.364C363.393 138.599 365.082 139.216 367.243 139.216C369.394 139.216 371.092 138.599 372.327 137.364C373.561 136.112 374.179 134.205 374.179 131.663V111.545H380.134V131.627C380.134 134.586 379.535 137.019 378.355 138.926C377.193 140.841 375.613 142.267 373.634 143.211C371.673 144.155 369.503 144.627 367.134 144.627Z" fill="#434A54"/>
<path d="M405.969 144.627C403.572 144.627 401.448 144.228 399.614 143.429C397.798 142.612 396.355 141.432 395.293 139.906C394.249 138.363 393.713 136.484 393.695 134.278H399.977C400.023 135.803 400.567 137.092 401.611 138.127C402.646 139.144 404.09 139.652 405.933 139.652C407.504 139.652 408.747 139.28 409.673 138.526C410.618 137.782 411.09 136.765 411.09 135.476C411.09 134.151 410.672 133.116 409.855 132.389C409.029 131.645 407.93 131.037 406.55 130.574C405.188 130.092 403.736 129.593 402.193 129.085C399.696 128.213 397.78 127.106 396.455 125.744C395.147 124.364 394.494 122.548 394.494 120.297C394.467 118.363 394.93 116.701 395.874 115.321C396.818 113.941 398.098 112.879 399.723 112.126C401.366 111.381 403.264 111 405.425 111C407.576 111 409.474 111.39 411.126 112.162C412.796 112.943 414.104 114.032 415.048 115.43C415.992 116.81 416.501 118.463 416.573 120.369H410.182C410.155 119.234 409.719 118.227 408.874 117.355C408.021 116.465 406.841 116.011 405.316 116.011C404.008 115.993 402.901 116.32 402.011 116.992C401.139 117.646 400.704 118.608 400.704 119.861C400.704 120.95 401.04 121.813 401.72 122.439C402.419 123.075 403.355 123.601 404.517 124.037C405.697 124.473 407.059 124.945 408.584 125.453C410.182 126.016 411.643 126.67 412.978 127.414C414.303 128.141 415.375 129.121 416.174 130.356C416.991 131.572 417.408 133.143 417.408 135.077C417.408 136.774 416.973 138.345 416.101 139.797C415.229 141.25 413.931 142.43 412.215 143.32C410.518 144.192 408.439 144.627 405.969 144.627Z" fill="#434A54"/>
</svg>
